<?xml version="1.0" encoding="UTF-8"?>
<svg id="Layer_1" data-name="Layer 1" xmlns="http://www.w3.org/2000/svg" viewBox="0 0 1024 1024">
  <defs>
    <style>
      .cls-1, .cls-2 {
        fill: #ff4e59;
      }

      .cls-2 {
        stroke: #ff4e59;
        stroke-miterlimit: 10;
        stroke-width: 24px;
      }
    </style>
  </defs>
  <g>
    <path class="cls-1" d="M718.683,688.336c-36.709,42.483-76.232,82.593-118.386,119.812-42.21,37.139-87.038,71.446-134.656,101.631-23.806,15.088-48.341,29.09-73.646,41.659-12.65,6.287-25.49,12.219-38.524,17.733-13.044,5.489-26.286,10.55-39.722,15.103-26.871,9.079-54.595,16.078-82.983,19.748-7.098.892-14.231,1.583-21.393,2.039-7.166.397-14.351.655-21.556.546-14.403-.185-28.88-1.503-43.169-4.36-14.274-2.873-28.375-7.271-41.709-13.603-13.334-6.3-25.881-14.521-36.912-24.491-11.047-9.952-20.538-21.612-28.21-34.279-7.695-12.669-13.565-26.318-17.916-40.319-4.353-14.013-7.168-28.397-8.812-42.827-1.664-14.438-2.104-28.934-1.713-43.351.863-28.846,5.168-57.348,11.637-85.193,6.512-27.852,15.211-55.073,25.387-81.653,10.205-26.573,21.868-52.532,34.754-77.828,12.874-25.306,26.905-49.975,41.824-74.075,7.465-12.047,15.129-23.971,23.063-35.709,3.919-5.903,7.988-11.701,12.008-17.534l6.143-8.668,3.078-4.33,3.136-4.287c33.374-45.79,69.948-89.205,109.245-130.007,39.303-40.795,81.305-79.035,125.966-114.048,44.679-34.963,92.003-66.808,142.375-93.658,25.205-13.371,51.168-25.495,77.996-35.752,26.83-10.224,54.544-18.597,83.101-24.07,28.533-5.44,57.994-7.975,87.682-5.383,7.416.669,14.836,1.667,22.226,3.038,7.385,1.406,14.742,3.165,22.002,5.394,14.518,4.431,28.676,10.718,41.734,18.992,13.06,8.256,24.95,18.537,34.997,30.322,10.066,11.775,18.296,24.985,24.652,38.851,6.364,13.874,10.969,28.369,14.089,43.01,3.136,14.647,4.866,29.446,5.492,44.177,1.253,29.487-1.649,58.661-6.953,87.104-5.347,28.458-13.161,56.235-22.603,83.314-18.955,54.168-44.344,105.545-73.355,154.461l-7.837,13.213-26.424-15.693,7.844-13.209c14.106-23.755,27.258-48.042,39.192-72.862,11.935-24.814,22.673-50.16,31.764-76.004,9.073-25.839,16.524-52.185,21.589-78.841,5.032-26.633,7.714-53.632,6.632-80.208-.547-13.276-2.03-26.43-4.716-39.215-2.665-12.786-6.581-25.183-11.858-36.822-5.275-11.637-11.994-22.466-20.11-32.045-8.108-9.585-17.625-17.891-28.233-24.666-10.605-6.78-22.265-12.057-34.54-15.86-6.134-1.913-12.426-3.447-18.805-4.692-6.39-1.212-12.874-2.116-19.417-2.735-13.093-1.216-26.42-1.256-39.75-.444-13.336.858-26.688,2.615-39.961,5.089-26.554,4.968-52.771,12.733-78.366,22.365-25.592,9.677-50.634,21.097-75.037,33.859-48.796,25.597-95.096,56.281-138.932,90.13-43.828,33.899-85.204,71.069-123.968,110.783-38.761,39.721-74.891,82.046-107.867,126.677-2.076,2.779-4.128,5.574-6.152,8.39l-6.096,8.431c-3.988,5.673-8.027,11.313-11.917,17.054-7.876,11.417-15.484,23.014-22.898,34.73-14.817,23.439-28.76,47.426-41.546,71.983-12.774,24.559-24.544,49.627-34.759,75.284-10.214,25.647-18.966,51.854-25.578,78.531-6.629,26.654-11.177,53.808-12.427,81.023-1.199,27.162.896,54.509,8.395,80.22,3.758,12.825,8.86,25.206,15.544,36.624,6.668,11.42,14.9,21.868,24.544,30.848,9.632,8.993,20.658,16.495,32.574,22.367,11.911,5.899,24.704,10.139,37.86,13.012,13.168,2.862,26.707,4.343,40.329,4.746,6.812.219,13.65.087,20.485-.174,6.837-.32,13.673-.865,20.498-1.605,27.306-3.06,54.338-9.376,80.717-17.799,13.192-4.224,26.24-8.958,39.129-14.127,12.879-5.194,25.602-10.812,38.162-16.793,25.119-11.971,49.601-25.356,73.437-39.838,47.674-28.989,92.813-62.222,135.478-98.362,42.675-36.148,82.866-75.289,120.347-116.907l1.028-1.142,2.282,2.01-1.004,1.162Z"/>
    <polygon class="cls-1" points="813.585 432.624 857.471 492.419 930.976 502.343 789.645 606.621 813.585 432.624"/>
  </g>
  <polygon class="cls-2" points="355.444 296.049 222.255 443.805 202.991 326.24 290.154 218.414 355.444 296.049"/>
  <path class="cls-1" d="M531.21,480.386c-21.738,35.46-60.931,64.207-87.539,64.207s-30.556-28.746-8.817-64.207c21.738-35.46,60.931-64.207,87.539-64.207s30.556,28.746,8.817,64.207Z"/>
</svg>